<?xml version="1.0" encoding="utf-8"?>
<!-- Generator: Adobe Illustrator 14.0.0, SVG Export Plug-In . SVG Version: 6.00 Build 43363)  -->
<!DOCTYPE svg PUBLIC "-//W3C//DTD SVG 1.0//EN" "http://www.w3.org/TR/2001/REC-SVG-20010904/DTD/svg10.dtd">
<svg version="1.0" id="Layer_1" xmlns="http://www.w3.org/2000/svg" xmlns:xlink="http://www.w3.org/1999/xlink" x="0px" y="0px"
	 width="100px" height="77.913px" viewBox="0 0 100 77.913" enable-background="new 0 0 100 77.913" xml:space="preserve">
<path d="M87.838,3.242c-1.454-3.438-16.457-8.989-21.414,13.153l-26.173,19.63L1.098,59.468l1.961,0.679l5.202-1.518L0,63.508
	l2.709,0.938l28.024-8.328c0,0,12.643,1.727,22.494,1.734c-0.464,0.929-0.928,1.857-1.393,2.786
	c-0.469,0.939,3.497,10.33,4.962,14.802c-2.47,0.375-4.941,0.751-7.411,1.126c-0.883,0.134-0.506,1.471,0.369,1.338
	c2.602-0.395,5.203-0.79,7.804-1.185c2.601,0.395,5.203,0.79,7.803,1.185c0.875,0.133,1.252-1.204,0.369-1.338
	c-2.491-0.379-4.983-0.757-7.475-1.136c-0.113-0.385-0.227-0.77-0.341-1.154c-0.442-1.498-0.884-2.995-1.327-4.493
	c-0.827-2.798-1.652-5.596-2.479-8.394c-0.006-0.02-0.012-0.032-0.017-0.049c0.3-0.602,9.757-4.912,9.757-4.912
	s-0.004,0-0.005-0.001C98.2,44.06,79.276,15.709,86.517,11.306C89.562,9.455,100,6.679,100,6.679
	C100,3.52,87.838,3.242,87.838,3.242z"/>
</svg>
